<svg xmlns="http://www.w3.org/2000/svg" xmlns:xlink="http://www.w3.org/1999/xlink" width="720" height="270" version="1.0"><defs><radialGradient xlink:href="#a" id="b" gradientUnits="userSpaceOnUse" gradientTransform="matrix(.25656 .25162 -.4651 .47424 75.043 307.523)" cx="233.695" cy="250.592" fx="233.695" fy="250.592" r="38.571"/><linearGradient id="a"><stop offset="0" stop-color="#73490f"/><stop offset="1" stop-color="#73490f" stop-opacity="0"/></linearGradient></defs><g fill-rule="evenodd"><path d="M64.166 203.913l107.566-49.328 190.8-62.561s57.503-28.897 83.512-37.85c36.178-12.45 123.957-29.998 123.957-29.998S483.484 44.432 447.89 57.709c-8.927 3.33-28.651 13.7-28.651 13.7s49.077-6.17 69.72-10.854c17.342-3.935 56.77-17.048 56.77-17.048s-43.15 17.803-62.369 23.21c-26.668 7.503-64.062 9.844-90.645 17.643-16.57 4.861-53.486 21.27-53.486 21.27s35.789-2.276 50.921-4.818c29.847-5.013 98.027-23.836 98.027-23.836S420.031 100.41 389.9 106.88c-22.837 4.905-77.227 9.917-77.227 9.917l-114.51 39.82L92.66 201.63l54.206-.596 78.008-26.338 74.255-16.642 98.336-31.578 89.961-31.296s39.054-21.745 56.927-28.464C589.799 49.629 700.934 25.8 700.934 25.8S592.321 52.41 547.982 70.219c-11.1 4.458-35.345 18.455-35.345 18.455S560.15 77.443 580.481 72.5c25.598-6.221 85.234-21.114 85.234-21.114s-66.163 21.331-94.712 29.841c-29.892 8.911-82.598 16.38-107.162 31.184 24.866 6.593 65.71-1.991 90.491-5.566 44.356-6.399 144.507-37.85 144.507-37.85s-104.827 39.258-151.826 47.609c-27.822 4.944-94.086 4.506-94.086 4.506l-97.245 27.746-138.032 40.947-108.943 31.875-48.076-15.92 3.535-1.846z" fill="#f4ea89"/><path d="M56.119 204.346L28.623 241.19s50.393 2.57 71.722-.264c26.779-3.558 61.434-14.495 87.009-23.195 28-9.525 90.983-37.96 90.983-37.96s56.1-14.906 80.064-21.578c29.825-8.304 64.72-21.654 99.184-28.501 14.276-2.836 47.361-6.125 61.534-9.438 23.234-5.432 74.735-27.214 74.735-27.214s-55.2 18.085-79.54 23.064c-17.66 3.613-57.123 9.832-59.644 7.274-3.325-3.372 12.84-14.96 19.83-19.525 14.847-9.695 54.904-21.884 54.904-21.884s-45.609 11.219-63.4 20.29c-11.984 6.11-36.144 26.536-36.144 26.536l-70.389 19.417s-58.04 19.657-83.47 26.122c-23.022 5.852-54.302 11.128-77.684 15.31-15.6 2.792-52.153 8.388-52.153 8.388s34.694-12.679 49.75-17.56c13.051-4.23 30.701-9.07 43.854-12.973 27.21-8.076 90.678-26.996 90.678-26.996l86.725-25.183-88.778 21.732s-64.747 15.901-91.966 24.528c-16.216 5.14-53.202 19.613-53.202 19.613s16.006-12.015 23.63-15.856c22.892-11.53 80.485-28.673 80.485-28.673s-72.357 21.17-91.186 29.11c-13.053 5.506-28.71 16.885-42.216 21.164-12.499 3.96-43.22 6.487-43.22 6.487l44.181-22.692 90.656-28.24s44.69-15.906 64.667-19.068c7.6-1.203 18.016.346 25.64-.7 18.689-2.562 60.998-15.267 60.998-15.267s-72.094 15.877-76.504 11.555c-4.764-4.668 10.904-11.238 16.423-14.982 7.771-5.273 28.15-13.694 28.15-13.694s-28.088 9.915-39.834 14.895c-12.466 5.285-28.13 14.495-40.753 19.394-41 15.915-140.21 42.809-140.21 42.809s33.337-19.358 48.615-25.51c21.18-8.529 73.097-21.208 73.097-21.208s-52.029 10.417-73.403 17.976c-16.676 5.897-37.146 18.011-53.354 25.095-16.793 7.34-40.437 14.328-56.63 22.91-8.404 4.455-26.338 17.648-26.338 17.648z" fill="#efdd59"/><path d="M11.352 237.775c.461-3.69 13.281-22.32 13.281-22.32 8.86-4.597 17.359-10.037 26.578-13.79 14.335-5.834 29.39-9.981 44.086-14.972l54.939-25.857-45.347 23.059 136.01-40.954c-58.655 17.916-72.135 24.874-108.202 37.31-16.11 7.645-51.404 22.144-48.329 22.936 4.145 1.068 46.659-11.57 69.988-17.356 18.912-4.423 31.163-5.148 49.585-11.159 29.277-9.551 33.681-20.497 139.293-40.051-64.25 10.42-121.138 33.435-122.872 36.728-1.433 2.722 45.03-9.59 67.59-14.159 31.471-6.372 63.004-12.442 94.506-18.663-34.1 8.02-68.141 16.298-102.3 24.059-26.6 6.044-53.533 10.72-79.979 17.356-25.388 6.37-66.676 17.605-75.521 21.66-4.14 1.899 24.495-1.75 36.57-3.797 35.987-6.1 71.745-13.764 107.617-20.646-24.733 5.693-49.677 10.64-74.2 17.08-11.247 2.953-22.234 6.98-33.11 11.098-8.221 3.113-16.12 7.062-24.18 10.592 22.94-4.668 46.068-8.574 68.82-14.005 15.826-3.778 31.276-9.08 46.914-13.62 0 0 53.417-22.675 60.919-24.735 7.501-2.06 62.963-18.11 62.963-18.11-27.87 10.131-79.67 26.9-83.608 30.393-2.851 2.529 42.42-7.172 63.24-12.33 21.068-5.219 41.617-12.534 62.425-18.801-23.862 8.716-68.51 24.758-93.467 29.508-16.554 3.142-87.367 24.328-89.12 24.359-1.752.03-40.012 17.355-40.012 17.355-14.51 2.183-41.63 5.321-43.533 6.55-1.447.934 22.32-.042 33.48-.063-21.618 3.419-43.495 5.687-64.854 10.255-15.256 3.262-30.332 7.94-44.993 13.236-9.145 3.303-16.077 9.525-26.424 12.56-12.612 3.698-25.835-13.804-38.753-20.706z" fill="#f0b015"/><path d="M10.695 250.43c-4.451-10.754 1.036-27.219 10.814-33.532 5.366-3.465 9.648-3.825 18.668-7.603 9.02-3.778 14.088-8.506 21.419-10.703 33.405-10.009 60.435-17.738 89.89-26.74 14.436-4.412 28.761-9.182 43.141-13.773-14.615 5.297-38.228 12.695-43.847 15.892-2.4 1.365 13.195-1.471 19.793-2.207-18.39 4.414-50.583 11.185-55.173 13.24-2.707 1.213 22.188-2.29 33.282-3.435-20.003 4.36-40.525 7.365-60.01 13.077-6 1.76-18.205 7.983-16.446 9.338 2.806 2.16 20.81 3.243 30.141 1.205 6.104-1.332 10.147-8.934 16.163-11.315 10.15-4.017 21.832-4.451 32.337-7.881 7.817-2.552 14.941-7.092 22.63-10.066 6.634-2.566 13.558-4.37 20.337-6.555l-33.717 13.98c8.156-1.425 16.363-2.637 24.467-4.273 1.983-.4 3.863-1.225 5.794-1.837-2.87 1.29-5.573 3.078-8.609 3.87-14.979 3.904-30.29 6.812-45.434 10.218 4.094.217 8.216.917 12.282.652 4.6-.3 9.145-1.565 13.718-2.348-5.428 1.5-10.76 3.643-16.283 4.5-4.984.774-10.627-1.265-15.24.392-6.514 2.34-19.469 9.83-18.14 11.598 1.675 2.229 18.28 1.517 27.152.39 7.37-.935 14.303-4.684 21.576-6.576 14.36-3.735 28.884-6.87 43.326-10.305-13.935 4.087-28.277 7.205-41.804 12.262-6.422 2.4-11.502 8.273-18.044 10.109-12.617 3.541-26.29 4.015-39.434 6.022L71.41 228.168l-7.543 8.066c7.565-2.116 14.992-4.878 22.696-6.349 17.085-3.261 34.617-4.475 51.673-7.848 8.39-1.66 16.323-5.393 24.663-7.25 6.559-1.462 13.654-.749 20.033-2.708 8.744-2.686 16.89-7.486 25.336-11.229-8.311 4.32-16.288 9.68-24.934 12.957-4.611 1.749-9.891 1.414-14.837 2.12 6.283.138 12.68 1.175 18.848.413 5.911-.73 11.594-3.261 17.391-4.892-6.072 2.42-11.88 6.146-18.217 7.262-8.532 1.5-17.788-.846-26.391.587-9.976 1.662-19.566 5.798-29.348 8.696 5.076-.337 10.185-.39 15.228-1.01 6.707-.826 13.348-2.219 20.022-3.327-7.323 1.822-14.539 4.318-21.967 5.467-7.941 1.229-16.3.045-24.142 1.664-9.655 1.994-19.03 5.763-28.347 9.174-6.448 2.361-12.485 6.168-18.946 8.142-2.292.7-6.194.475-10.62 2.294-3.642 1.497-13.827 11.827-21.716 12.652-10.145 1.061-25.698-3.194-29.598-12.619z" fill="#ee920e"/><path d="M22.858 219.167c-9.55 3.371-15.387 19.129-12.397 27.739 2.682 7.724 16.571 17.647 24.15 12.635l31.45-20.799c6.858-4.535 14.53-1.927 22.09-4.858 5.15-1.996 8.226-8.512 16.04-9.922 31.161-5.625 39.684-7.738 80.855-17.372-39.874 8.588-69 10.168-95.044 17.971-7 2.097-14.009 4.161-21.013 6.242l20.852-15.442 7.732-3.904c12.704-.223 25.807 1.696 38.114-.67 13.287-2.554 17.293-8.455 38.668-14.089-15.825 2.206-27.936 8.55-42.15 10.47-9.162 1.237-18.65-.666-27.977-1l-27.507.747-15.572 6.671-10.584 1.238s10.738-7.463 11.606-7.917c.869-.453 7.002-5.557 7.002-5.557 24.992-5.931 25.312-9.326 51.641-13.966-21.302 3.062-43.996 6.762-62.501 14.42l-11.675 8.97-23.78 8.393z" fill="#e57e0f"/><path d="M15.787 245.76c-.9 3.163-3.651 6.69-3.166 9.347.355 1.945 3.544 3.463 5.687 4.458 2.953 1.37 6.333 2.366 9.6 2.636 4.604.38 9.75.84 14.012-.685 5.697-2.039 10.575-6.671 15.863-10.007 3.21-1.868 6.314-3.965 9.63-5.603 1.898-.937 3.964-1.572 6.011-2.122 2.605-.7 5.314-1.017 7.947-1.63 2.663-.619 5.293-1.378 7.94-2.067l11.244-3.528 27.208-7.84-42.594 10.648c-3.828.832-7.658 1.653-11.484 2.495-5.044 1.11-10.017 2.783-15.125 3.364-6.046.689-14.37 1.687-18.337.446-1.288-.402.829-4.74 2.57-5.375 7.311-2.664 16.392-3.014 24.588-4.522l9.69-2.277 6.68-.8 4.505-1.07c1.88-1.149 4.062-1.963 5.64-3.446 1.977-1.856 2.13-2.562 7.578-3.396 3.397-.68 7.281-1.017 10.678-1.697l15.804-3.5-33.614 5.735-6.744 4.146-12.245 1.517 4.767-3.864 3.81-1.864 25.575-8.197-22.581 5.789c-2.846.277-8.635 1.554-8.538.832.122-.914 15.46-10.31 19.016-11.18 5.721-1.4 12.007-.913 18.01-1.37-6.75.304-13.983-1.088-20.25.913-8.175 2.612-14.968 10.325-23.075 12.925-4.774 1.53-9.793.467-15.565-.533 3.811-3.98 7.079-6.56 11.226-8.78 3.077-1.646 7.179-1.506 10.447-2.818 3.89-1.561 7.395-4.394 11.435-5.283 6.373-1.401 13.203-1.058 19.804-1.587-22.478.278-20.255-1.58-30.266-1.266-3.348.106-6.78 1.127-9.81 2.528-4.265 1.97-7.707 5.977-12.076 7.587-4.58 1.687-9.847 1.536-14.771 2.304l6.19-3.95s12.664-4.587 13.528-4.788c.864-.201 4.496-5.64 7.113-6.343 5.146-1.383 13.197-4.173 18.293-5.73-6.17 1.555-12.692 2.331-18.51 4.664-3.557 1.426-6.133 5.064-9.615 6.615-2.893 1.288-6.34 1.268-9.51 1.902 3.18-2.37 5.286-4.966 8.713-6.963 2.56-1.491 12.09-4.744 11.471-4.733-.62.01-11.715 3.4-14.228 5.022-3.54 2.285-6.397 5.721-10.092 7.614-3.697 1.894-8.332 1.915-12.082 3.745-4.198 2.049-9.563 4.035-11.76 7.892-3.801 6.67-4.001 15.84-6.235 23.69z" fill="#dc6b0f"/><path d="M53.025 207.508c-2.725.823-4.235.993-6.802 2.175-4.196 1.932-7.849 5.134-12.087 6.968-4.024 1.74-8.876 1.789-12.701 3.755-2.624 1.35-5.4 3.585-6.647 6.19-1.862 3.895-2.076 8.84-2.679 13.31-.402 2.984-1.812 6.895-.337 9.055 2.108 3.086 7.004 5.827 11.087 6.685 6.803 1.43 17.824 1.375 21.57.179 1.39-.444-6.854-3.82-6.162-5.098 1.069-1.976 7.67-3.02 11.445-4.663 2.109-.919 4.002-2.786 6.207-3.022 3.569-.382 7.405.83 11.114 1.168 1.981.18 4.062.724 5.956.391 1.628-.286 2.98-1.864 4.61-2.25 1.95-.462 12.307-3.203 15.543-4.24 8.433-2.7 17.061-4.844 25.592-7.266-16.856 4.059-21.516 4.563-30.495 6.919-5.207 1.366-10.165 4.135-15.342 5.103-2.133.4-4.391-.666-6.587-1-2.34-.35-4.681-.702-7.022-1.054l8.604-4.18c2.525-.89 4.964-2.218 7.576-2.673 3.587-.625 7.497.255 11.021-.566 3.389-.788 6.344-3.296 9.718-4.26 3.861-1.105 7.239-1.767 11.989-1.947-5.384-.154-10.515.714-15.587 1.762-2.255.465-4.265 1.851-6.397 2.777 2.98-2.056 4.566-4.037 7.676-5.796.96-.543 3.53-1.042 4.536-1.112-1.828-.285-3.676-.169-5.196.587-3.518 1.75-6.612 4.62-9.918 6.93-2.58.148-5.191.075-7.74.445-2.624.382-5.184 1.207-7.776 1.81l-2.772.979 3.603-3.038c2.035-.615 4.233-.895 6.103-1.843 2.184-1.106 3.882-3.174 6.06-4.32 2.611-1.376 5.056-2.287 8.31-3.245-2.842.35-5.88 1.466-8.63 2.63-2.192.927-3.976 2.803-6.196 3.642-3.403 1.285-7.116 1.819-10.674 2.728l-5.799 1.527-9.598.479-7.831-1.288c3.121-1.067 6.218-2.213 9.364-3.201 3.12-.981 6.23-2.229 9.434-2.707 2.915-.435 6.025.463 8.924-.033 3.568-.61 6.986-2.188 10.479-3.283-3.6.89-7.159 2.329-10.8 2.669-2.897.27-5.876-.558-8.814-.837 2.706-1.163 5.337-2.566 8.119-3.489 2.085-.692 4.322-.902 6.484-1.353-2.971.217-5.998.123-8.913.652-3.139.57-6.113 2.058-9.25 2.641-2.876.535-5.859.475-8.788.713-2.325.577-6.927 2.144-6.973 1.733-.052-.455 4.453-2.887 6.68-4.331 2.352-1.281 4.533-3.083 7.059-3.843 3.454-1.039 7.388-.556 10.88-1.554 3.744-1.07 7.003-4.107 10.826-4.653 7.882-1.126 13.76-1.515 24.288-.364-4.804-.66-9.616-1.985-14.413-1.978-4.169.006-8.399 1.052-12.483 2.016-2.438.576-4.721 1.736-7.082 2.604 2.176-1.98 4.036-4.494 6.527-5.94 2.683-1.558 5.996-2.048 8.995-3.072-3.538.868-7.366 1.096-10.614 2.604-3.596 1.67-6.33 5.262-9.919 6.93-2.927 1.36-6.603.986-9.63 2.152-2.37.912-4.373 2.72-6.56 4.081-2.558.21-6.844 1.184-7.674.631-.53-.353 2.399-2.232 3.598-3.348 3.263-1.255 6.506-3.606 9.788-3.766-2.274-1.079-6.23 1.817-8.4 1.657 2.477-1.22 5.538-3.34 8.172-4.07 4.212-1.168 8.685-1.702 13.103-2.028-3.368-.701-6.79.526-8.924.198 2.851-2.04 6.947-1.624 9.31-2.932 2.65-1.466 2.267-3.755 7.212-5.766-3.767.855-5.187 3.347-7.979 4.478-1.843.748-3.953.772-5.929 1.158 2.03-.82 1.913-1.691 6.092-2.462-2.646-.419-6.813 1.938-9.534 2.76z" fill="#d3540f"/><path d="M16.025 229.367c1.554-2.19 2.71-4.826 4.662-6.568 1.903-1.7 4.476-2.84 6.901-3.759 2.305-.873 4.93-.877 7.29-1.618 1.388-.435 2.637-1.273 3.955-1.91-1.444.975-2.781 2.186-4.331 2.925-1.217.58-2.7.568-3.97 1.034-.53.194-.953.63-1.43.945 1.627.307 3.273 1.025 4.881.922 1.865-.119 3.658-1.234 5.538-1.587 1.979-.372 4.025-.392 6.037-.588-1.132.4-2.353.638-3.397 1.199-.953.511-1.73 1.345-2.594 2.018 2.64-.222 5.29-.712 7.92-.665 1.929.034 3.867 1.028 5.757.906 1.845-.119 3.633-1.086 5.45-1.63-1.58.73-3.098 1.664-4.739 2.188-1.264.403-2.69.266-3.977.595-.735.188-1.391.638-2.087.957 1.157.155 2.306.428 3.47.465 3.22.105 6.525-.564 9.684-.038 1.356.225 3.317.862 7.748 1.967-6.505-1.084-8.742-.7-10.876-.422-2.151.28-4.189 1.36-6.321 1.864-1.214.286-2.478.335-3.717.503l-1.506 4.058 2.444 4.427c2.456-.744 4.867-1.827 7.367-2.233 1.739-.282 3.679.576 5.35.17 1.689-.412 3.053-2.003 4.73-2.625 2.416-.896 5.032-1.287 7.548-1.93l-5.13 2.325c1.113.17 2.222.525 3.34.511 1.832-.023 3.67-.597 5.51-.622 1.84-.025 3.687.315 5.53.472-4.48.21-5.995.447-7.909 1.322-2.007.918-4.1 1.794-6.225 2.345-1.263.327-2.715-.096-3.94.288-1.288.405-2.4 1.386-3.6 2.08l-4.804.96-7.04 3.367-5.88 2.075-4.35 1.83 5.6 1.917c1.46-.026 2.93.073 4.38-.077 2.968-.307 5.916-.864 8.874-1.295 2.99-1.105 5.905-2.749 8.969-3.313 2.017-.372 4.265.723 6.276.503 1.007-.11 1.852-.997 2.778-1.495-1.255.884-2.345 2.28-3.766 2.652-2.055.537-4.515-.32-6.66.073-1.743.319-3.336 1.373-5.003 2.06-5.748 3.767-11.22 8.157-17.244 11.302-2.66 1.39-5.868 2.177-8.812 2.302-2.267.097-4.725-.68-6.82-1.633-2.485-1.129-4.856-2.807-6.918-4.611-1.588-1.389-2.68-3.319-4.032-4.969-1.62-1.979-4.45-3.719-4.88-5.918-.421-2.153 2.051-4.726 2.328-7.14.192-1.67-1.213-3.535-.922-5.111.256-1.384 1.709-2.514 2.563-3.77z" fill="#cb440e"/><path d="M42.887 221.795c-2.41.043-5.203.661-7.728 1.626-1.777.68-3.448 1.61-5.172 2.414 0 0-4.927 3.943-5.28 3.773-.354-.169-.961-4.803-.961-4.803l.5-1.499-3.413 2.82-3.743 3.967 1.717-6.998c-1.243 1.54-2.203 1.806-3.731 4.623-.96 1.857-.696 3.65-.404 4.477l1.53 4.75-4.427 14.934c-.584 1.675.177 2.582.588 3.54 1.458-1.838 3.031-4.597 4.938-3.287l4.777.004 3.04 5.907 1.092 2.26c1.297 1.525 3.97 1.536 7.651 1.486-1.578-1.696-1.847-2.723-1.956-4.085-.078-.972.577-2.803 1.395-2.917 1.47-.204 3.586 1.607 5.468 1.964 2.134.405 4.53.774 6.58.323 1.632-.36 2.977-1.834 4.465-2.752l5.55-3.428c-3.16.625-6.341 1.811-9.478 1.876-1.872.038-3.7-1.046-5.549-1.568l5.757-6.587c2.367-.787 4.664-2.028 7.102-2.36 2.984-.406 6.114-.017 9.161.146 2.495.134 4.976.497 7.463.745-1.805-.465-3.72-.704-5.414-1.395-.85-.346-2.519-1.19-2.222-1.713.624-1.1 3.278-2.185 4.985-3.156 1.128-.642 2.346-1.122 3.52-1.683-2.127.359-4.34.445-6.38 1.076-1.91.592-4.05 1.755-5.968 2.033-2.089.304-5.991.36-6.052-.288-.065-.679 2.184-2.138 4.238-3.186 1.682-.858 5.288-1.67 6.968-2.532l-5.903.76s-6.084 1.69-6.503 1.561c-1.894-.58-2.317-4.692-2.317-4.692-1.67-1.125-6.957-4.377-9.546-4.565.958-1.171 2.397-2.438 3.662-3.57z" fill="#c1340e"/><path d="M34.457 224.33c-1.774.436-3.765.862-5.566.718-1.157-.093-2.206-.953-3.31-1.43-1.188.558-2.321 1.308-3.565 1.674-1.14.337-2.391.29-3.587.435l-1.728 3.935-2.782 3.891c-.325 1.535-.502 3.115-.973 4.604-.528 1.668-1.348 3.246-2.022 4.87 1.201 1.342 2.8 2.5 3.604 4.026.565 1.074.333 2.515.5 3.772.811.337 1.717.521 2.434 1.01 1.29.88 2.392 2.066 3.588 3.099l4.032.239 2.951 2.179 3.163.13c.857-.614 1.598-1.613 2.57-1.842 1.394-.329 3.019.112 4.528.168.665-.962 1.087-2.267 1.995-2.886.99-.675 2.467-.663 3.7-.994.071-1.86-.348-3.945.212-5.582.344-1.003 1.667-1.558 2.5-2.337l-.081-4.646c.782-1.316 2.184-2.577 2.348-3.946.142-1.198-1.483-2.535-1.43-3.756.05-1.136.176-1.759 1.74-3.315-3.128-.42-5.634-1.775-9.381-1.26-.853.116-.406-1.935-.609-2.903l-3.609-.804c-.407.317-.733.83-1.222.951z" fill="#b3230c" fill-opacity=".845"/><path d="M22.127 225.892c-.831.057-1.816-1.13-2.724-1.696.118.711.683 1.687.354 2.134-.419.57-1.733.611-2.599.917.174.869.89 2.095.521 2.606-.404.56-1.895.404-2.842.605.227.894.88 1.861.681 2.683-.27 1.115-1.39 2.085-2.085 3.127-.109 1.323.086 2.775-.326 3.968-.267.774-1.14 1.288-1.71 1.932l2.585 2.808-.806 3.739c.767.04 2.009-.36 2.3.118.443.724-.064 2.326-.097 3.489.841-.253 1.963-1.11 2.523-.758.749.47.936 2.15 1.404 3.225 1.14.218 2.49.082 3.42.653.993.61 1.565 1.927 2.348 2.891l3.142-1.64c1.28.744 2.562 1.487 3.843 2.23 0 0-.83-3.283.02-3.328.953-.051 2.405 1.543 2.405 1.543l3.315-.772c-.167-.472-.813-1.332-.5-1.418.817-.224 2.594.325 3.892.487l.097-3.489s2.94.424 3.384-1.327c.445-1.752 1.154-6.52 1.154-6.52-.605.17-1.847.77-1.814.508.06-.479 3.363-4.318 3.475-5.212.166-1.33-.229-2.83-.55-4.19-.207-.884 1.125-2.438 4.06-3.56-2.63-2.54-5.283-2.918-6.638-3.37-1.355-.451-4.425-.335-2.286-3.843-2.496.236-4.998 1.261-7.43 1.16-1.613-.066-3.136-1.106-4.705-1.66-1.128.442-2.286 1.338-3.384 1.327-.858-.008-1.654-.921-2.481-1.382-.649.671-1.22 1.965-1.946 2.015z" fill="#86140a"/><path d="M24.103 225.193l-5.826 2.644.853 3.666-2.936 2.506-2.474 3.812 1.806 3.036-.538 4.304 2.413 2.675.508 3.935 3.773.284 1.799 2.598 5.18.523 2.483 1.621 2.66-3.29 6.232.592-1.006-2.436 3.773-4.712-2.282-.222 2.59-7.233 2.12 1.015-1.513-6.372-2.629.046s-1.176-7.079-1.883-7.417c-.707-.338-4.22-.714-4.22-.714l-3.95-.37-3.236.408-3.697-.9z" fill="#392408"/><path d="M43.343 234.493l-8.199 11.362 5.938-11.291 2.26-.071z" fill="#110a02"/><path d="M42.02 247.376l-7.088-1.239 2.332 7.49 4.755-6.25z" fill="#0f0902"/><path d="M23.577 254.146l8.723.869-11.884-6.144 3.16 5.275z" fill="#1f1304"/><path d="M39.235 238.147l-6.16-7.7-8.852 7.583 15.012.117z" fill="#291804"/><path d="M24.256 238.113l-3.837 3.848-4.133-7.736 2.866-2.623 5.104 6.511zm-3.967 10.544l-4.414-7.794s11.362 2.9 11.082 2.842c-.28-.057-6.698 5.014-6.668 4.952z" fill="#1d1103"/><path d="M24.128 225.534l1.823 1.487 1.598-.772-3.421-.715z"/><path d="M31.076 225.939l2.057 4.21 3.625-3.566-5.682-.644z" fill="#241503"/><path d="M20.156 479.585l-4.115 4.899 2.351 2.939-1.568 3.527-.587 4.507 2.939 1.96 1.372 4.115 3.33 1.371 2.156 3.332s3.082-21.724 11.17-28.806c-1.127-1.47-2.352-2.939-2.744-2.939-.784 0-4.115 1.176-4.115 1.176l-3.723 1.371-2.743 1.764-3.723.784z" fill="url(#b)" transform="rotate(25.559 582.917 361.09)"/><path d="M27.397 244.07l-.329 7.752 7.68-5.62.974-8.058-8.325 5.925z" fill="#291905"/><path d="M272.668 113.576l99.59-36.347c-17.818 7.684-35.262 16.413-53.454 23.053-15.005 5.476-30.758 8.863-46.136 13.294zm15.143 25.859c-6.412 1.275-6.952 4.739-2.85 3.887 68.518-14.225 182.135-48.141 182.135-48.141S340.78 128.907 287.81 139.435z" fill="#f5f1ca"/><path d="M394.654 93.243l4.598-2.221 53.987-13.076-58.585 15.297z" fill="#8dff8f"/><path d="M238.92 202.628l-10.948 6.256s117.897-32.917 168.998-44.701c17.158-3.957 40.46-7.253 57.584-11.355 23.243-5.569 76.664-21.678 76.664-21.678s-54.52 14.203-78.134 19.207c-11.236 2.38-37.282 9.26-37.69 6.725-.293-1.811 46.168-13.831 58.296-20.497-28.841 9.334-51.367 16.146-73.592 22.906-47.889 14.567-161.178 43.137-161.178 43.137z" fill="#d1fff6"/><path d="M556.943 42.24l-22.325 8.328 154.273-40.25L556.943 42.24z" fill="#d1f5ff"/><path d="M467.846 56.645l-5.474 3.128 58.225-15.468-52.751 12.34zm57.162 45.901c-3.375 1.17 2.043 2.961 6.444 1.313C579.075 86.024 645.06 70.238 709.63 53.825c-62.307 13.222-124.241 27.786-184.622 48.72z" fill="#d1fff6"/><path d="M576.477 67.935l4.598-2.221 101.03-25.494-105.628 27.715z" fill="#a5c3ff"/></g></svg>